# WaveFront *.obj file (generated by Autodesk ATF)

mtllib 14a7c73d-227b-472d-90fa-a2316b1f4411.mtl

g Body3

v 2.900000 2.200000 0.000000
v 2.900000 2.250000 0.000000
v 1.500000 2.250000 -0.000000
v 1.500000 2.200000 -0.000000
v 2.900000 2.800000 0.000000
v 2.900000 2.794236 -0.058527
v 2.900000 2.777164 -0.114805
v 2.900000 2.749441 -0.166671
v 2.900000 2.712132 -0.212132
v 2.900000 2.666671 -0.249441
v 2.900000 2.614805 -0.277164
v 2.900000 2.558527 -0.294236
v 2.900000 2.500000 -0.300000
v 2.900000 2.441473 -0.294236
v 2.900000 2.385195 -0.277164
v 2.900000 2.333329 -0.249441
v 2.900000 2.287868 -0.212132
v 2.900000 2.250559 -0.166671
v 2.900000 2.222836 -0.114805
v 2.900000 2.205764 -0.058527
v 1.500000 2.205764 -0.058527
v 1.500000 2.222836 -0.114805
v 1.500000 2.250559 -0.166671
v 1.500000 2.287868 -0.212132
v 1.500000 2.333329 -0.249441
v 1.500000 2.385195 -0.277164
v 1.500000 2.441473 -0.294236
v 1.500000 2.500000 -0.300000
v 1.500000 2.558527 -0.294236
v 1.500000 2.614805 -0.277164
v 1.500000 2.666671 -0.249441
v 1.500000 2.712132 -0.212132
v 1.500000 2.749441 -0.166671
v 1.500000 2.777164 -0.114805
v 1.500000 2.794236 -0.058527
v 1.500000 2.800000 0.000000
v 1.500000 2.255463 -0.051978
v 1.500000 2.271614 -0.101684
v 1.500000 2.297746 -0.146946
v 1.500000 2.332717 -0.185786
v 1.500000 2.375000 -0.216506
v 1.500000 2.422746 -0.237764
v 1.500000 2.473868 -0.248630
v 1.500000 2.526132 -0.248630
v 1.500000 2.577254 -0.237764
v 1.500000 2.625000 -0.216506
v 1.500000 2.667283 -0.185786
v 1.500000 2.702254 -0.146946
v 1.500000 2.728386 -0.101684
v 1.500000 2.744537 -0.051978
v 1.500000 2.750000 0.000000
v 2.900000 2.750000 0.000000
v 2.900000 2.255463 -0.051978
v 2.900000 2.271614 -0.101684
v 2.900000 2.297746 -0.146946
v 2.900000 2.332717 -0.185786
v 2.900000 2.375000 -0.216506
v 2.900000 2.422746 -0.237764
v 2.900000 2.473868 -0.248630
v 2.900000 2.526132 -0.248630
v 2.900000 2.577254 -0.237764
v 2.900000 2.625000 -0.216506
v 2.900000 2.667283 -0.185786
v 2.900000 2.702254 -0.146946
v 2.900000 2.728386 -0.101684
v 2.900000 2.744537 -0.051978
vt 0.030000 0.210000 0.000000
vt -0.110000 0.210000 0.000000
vt 0.030000 0.205000 0.000000
vt -0.110000 0.205000 0.000000
vt -0.140000 0.000000 0.000000
vt -0.140000 -0.005890 0.000000
vt -0.000000 0.000000 0.000000
vt -0.000000 -0.005890 0.000000
vt -0.140000 -0.011781 0.000000
vt -0.000000 -0.011781 0.000000
vt -0.140000 -0.017671 0.000000
vt -0.000000 -0.017671 0.000000
vt -0.140000 -0.023562 0.000000
vt -0.000000 -0.023562 0.000000
vt -0.140000 -0.029452 0.000000
vt -0.000000 -0.029452 0.000000
vt -0.140000 -0.035343 0.000000
vt -0.000000 -0.035343 0.000000
vt -0.140000 -0.041233 0.000000
vt -0.000000 -0.041233 0.000000
vt -0.140000 -0.047124 0.000000
vt -0.000000 -0.047124 0.000000
vt -0.140000 -0.053014 0.000000
vt -0.000000 -0.053014 0.000000
vt -0.140000 -0.058905 0.000000
vt -0.000000 -0.058905 0.000000
vt -0.140000 -0.064795 0.000000
vt -0.000000 -0.064795 0.000000
vt -0.140000 -0.070686 0.000000
vt -0.000000 -0.070686 0.000000
vt -0.140000 -0.076576 0.000000
vt -0.000000 -0.076576 0.000000
vt -0.140000 -0.082467 0.000000
vt -0.000000 -0.082467 0.000000
vt -0.140000 -0.088357 0.000000
vt -0.000000 -0.088357 0.000000
vt -0.000000 -0.094248 0.000000
vt -0.140000 -0.094248 0.000000
vt -0.030000 0.470000 0.000000
vt -0.030000 0.475000 0.000000
vt -0.035853 0.470576 0.000000
vt -0.035198 0.475546 0.000000
vt -0.041481 0.472284 0.000000
vt -0.040168 0.477161 0.000000
vt -0.046667 0.475056 0.000000
vt -0.044695 0.479775 0.000000
vt -0.051213 0.478787 0.000000
vt -0.048579 0.483272 0.000000
vt -0.054944 0.483333 0.000000
vt -0.051651 0.487500 0.000000
vt -0.057716 0.488520 0.000000
vt -0.053776 0.492275 0.000000
vt -0.059424 0.494147 0.000000
vt -0.054863 0.497387 0.000000
vt -0.060000 0.500000 0.000000
vt -0.054863 0.502613 0.000000
vt -0.059424 0.505853 0.000000
vt -0.053776 0.507725 0.000000
vt -0.057716 0.511481 0.000000
vt -0.051651 0.512500 0.000000
vt -0.054944 0.516667 0.000000
vt -0.048579 0.516728 0.000000
vt -0.051213 0.521213 0.000000
vt -0.044695 0.520225 0.000000
vt -0.046667 0.524944 0.000000
vt -0.040168 0.522839 0.000000
vt -0.041481 0.527716 0.000000
vt -0.035198 0.524454 0.000000
vt -0.035853 0.529424 0.000000
vt -0.030000 0.525000 0.000000
vt -0.030000 0.530000 0.000000
vt 0.030000 0.265000 0.000000
vt -0.110000 0.265000 0.000000
vt 0.030000 0.260000 0.000000
vt -0.110000 0.260000 0.000000
vt 0.000000 -0.078540 0.000000
vt 0.140000 -0.078540 0.000000
vt 0.000000 -0.073304 0.000000
vt 0.140000 -0.073304 0.000000
vt 0.140000 -0.068068 0.000000
vt 0.000000 -0.068068 0.000000
vt 0.140000 -0.062832 0.000000
vt 0.000000 -0.062832 0.000000
vt 0.140000 -0.057596 0.000000
vt 0.000000 -0.057596 0.000000
vt 0.140000 -0.052360 0.000000
vt 0.000000 -0.052360 0.000000
vt 0.140000 -0.047124 0.000000
vt 0.000000 -0.047124 0.000000
vt 0.140000 -0.041888 0.000000
vt 0.000000 -0.041888 0.000000
vt 0.140000 -0.036652 0.000000
vt 0.000000 -0.036652 0.000000
vt 0.140000 -0.031416 0.000000
vt 0.000000 -0.031416 0.000000
vt 0.140000 -0.026180 0.000000
vt 0.000000 -0.026180 0.000000
vt 0.140000 -0.020944 0.000000
vt 0.000000 -0.020944 0.000000
vt 0.140000 -0.015708 0.000000
vt 0.000000 -0.015708 0.000000
vt 0.140000 -0.010472 0.000000
vt 0.000000 -0.010472 0.000000
vt 0.140000 -0.005236 0.000000
vt 0.000000 -0.005236 0.000000
vt 0.140000 0.000000 0.000000
vt 0.000000 0.000000 0.000000
vt 0.030000 0.530000 0.000000
vt 0.030000 0.525000 0.000000
vt 0.035853 0.529424 0.000000
vt 0.035198 0.524454 0.000000
vt 0.041481 0.527716 0.000000
vt 0.040168 0.522839 0.000000
vt 0.046667 0.524944 0.000000
vt 0.044695 0.520225 0.000000
vt 0.051213 0.521213 0.000000
vt 0.048579 0.516728 0.000000
vt 0.054944 0.516667 0.000000
vt 0.051651 0.512500 0.000000
vt 0.057716 0.511481 0.000000
vt 0.053776 0.507725 0.000000
vt 0.059424 0.505853 0.000000
vt 0.054863 0.502613 0.000000
vt 0.060000 0.500000 0.000000
vt 0.054863 0.497387 0.000000
vt 0.059424 0.494147 0.000000
vt 0.053776 0.492275 0.000000
vt 0.057716 0.488520 0.000000
vt 0.051651 0.487500 0.000000
vt 0.054944 0.483333 0.000000
vt 0.048579 0.483272 0.000000
vt 0.051213 0.478787 0.000000
vt 0.044695 0.479775 0.000000
vt 0.046667 0.475056 0.000000
vt 0.040168 0.477161 0.000000
vt 0.041481 0.472284 0.000000
vt 0.035198 0.475546 0.000000
vt 0.035853 0.470576 0.000000
vt 0.030000 0.475000 0.000000
vt 0.030000 0.470000 0.000000
vn 0.000000 0.000000 0.100000
vn 0.000000 0.000000 0.100000
vn 0.000000 0.000000 0.100000
vn 0.000000 0.000000 0.100000
vn -0.000000 0.100000 -0.000000
vn -0.000000 0.098079 -0.019509
vn -0.000000 0.100000 -0.000000
vn -0.000000 0.098079 -0.019509
vn -0.000000 0.092388 -0.038268
vn -0.000000 0.092388 -0.038268
vn -0.000000 0.083147 -0.055557
vn -0.000000 0.083147 -0.055557
vn -0.000000 0.070711 -0.070711
vn -0.000000 0.070711 -0.070711
vn -0.000000 0.055557 -0.083147
vn -0.000000 0.055557 -0.083147
vn -0.000000 0.038268 -0.092388
vn -0.000000 0.038268 -0.092388
vn -0.000000 0.019509 -0.098079
vn -0.000000 0.019509 -0.098079
vn -0.000000 0.000000 -0.100000
vn -0.000000 0.000000 -0.100000
vn 0.000000 -0.019509 -0.098079
vn 0.000000 -0.019509 -0.098079
vn 0.000000 -0.038268 -0.092388
vn 0.000000 -0.038268 -0.092388
vn 0.000000 -0.055557 -0.083147
vn 0.000000 -0.055557 -0.083147
vn 0.000000 -0.070711 -0.070711
vn 0.000000 -0.070711 -0.070711
vn 0.000000 -0.083147 -0.055557
vn 0.000000 -0.083147 -0.055557
vn 0.000000 -0.092388 -0.038268
vn 0.000000 -0.092388 -0.038268
vn 0.000000 -0.098079 -0.019509
vn 0.000000 -0.098079 -0.019509
vn 0.000000 -0.100000 -0.000000
vn 0.000000 -0.100000 -0.000000
vn -0.100000 0.000000 0.000000
vn -0.100000 0.000000 0.000000
vn -0.100000 0.000000 0.000000
vn -0.100000 0.000000 0.000000
vn -0.100000 0.000000 0.000000
vn -0.100000 0.000000 0.000000
vn -0.100000 0.000000 0.000000
vn -0.100000 0.000000 0.000000
vn -0.100000 0.000000 0.000000
vn -0.100000 0.000000 0.000000
vn -0.100000 0.000000 0.000000
vn -0.100000 0.000000 0.000000
vn -0.100000 0.000000 0.000000
vn -0.100000 0.000000 0.000000
vn -0.100000 0.000000 0.000000
vn -0.100000 0.000000 0.000000
vn -0.100000 0.000000 0.000000
vn -0.100000 0.000000 0.000000
vn -0.100000 0.000000 0.000000
vn -0.100000 0.000000 0.000000
vn -0.100000 0.000000 0.000000
vn -0.100000 0.000000 0.000000
vn -0.100000 0.000000 0.000000
vn -0.100000 0.000000 0.000000
vn -0.100000 0.000000 0.000000
vn -0.100000 0.000000 0.000000
vn -0.100000 0.000000 0.000000
vn -0.100000 0.000000 0.000000
vn -0.100000 0.000000 0.000000
vn -0.100000 0.000000 0.000000
vn -0.100000 0.000000 0.000000
vn -0.100000 0.000000 0.000000
vn -0.100000 0.000000 0.000000
vn 0.000000 0.000000 0.100000
vn 0.000000 0.000000 0.100000
vn 0.000000 0.000000 0.100000
vn 0.000000 0.000000 0.100000
vn 0.000000 0.100000 0.000000
vn 0.000000 0.100000 0.000000
vn 0.000000 0.097815 0.020791
vn 0.000000 0.097815 0.020791
vn 0.000000 0.091355 0.040674
vn 0.000000 0.091355 0.040674
vn 0.000000 0.080902 0.058779
vn 0.000000 0.080902 0.058779
vn 0.000000 0.066913 0.074314
vn 0.000000 0.066913 0.074314
vn 0.000000 0.050000 0.086603
vn 0.000000 0.050000 0.086603
vn 0.000000 0.030902 0.095106
vn 0.000000 0.030902 0.095106
vn 0.000000 0.010453 0.099452
vn 0.000000 0.010453 0.099452
vn 0.000000 -0.010453 0.099452
vn 0.000000 -0.010453 0.099452
vn 0.000000 -0.030902 0.095106
vn 0.000000 -0.030902 0.095106
vn 0.000000 -0.050000 0.086603
vn 0.000000 -0.050000 0.086603
vn 0.000000 -0.066913 0.074314
vn 0.000000 -0.066913 0.074314
vn 0.000000 -0.080902 0.058779
vn 0.000000 -0.080902 0.058779
vn 0.000000 -0.091355 0.040674
vn 0.000000 -0.091355 0.040674
vn 0.000000 -0.097815 0.020791
vn 0.000000 -0.097815 0.020791
vn 0.000000 -0.100000 0.000000
vn 0.000000 -0.100000 0.000000
vn 0.100000 0.000000 0.000000
vn 0.100000 0.000000 0.000000
vn 0.100000 0.000000 0.000000
vn 0.100000 0.000000 0.000000
vn 0.100000 0.000000 0.000000
vn 0.100000 0.000000 0.000000
vn 0.100000 0.000000 0.000000
vn 0.100000 0.000000 0.000000
vn 0.100000 0.000000 0.000000
vn 0.100000 0.000000 0.000000
vn 0.100000 0.000000 0.000000
vn 0.100000 0.000000 0.000000
vn 0.100000 0.000000 0.000000
vn 0.100000 0.000000 0.000000
vn 0.100000 0.000000 0.000000
vn 0.100000 0.000000 0.000000
vn 0.100000 0.000000 0.000000
vn 0.100000 0.000000 0.000000
vn 0.100000 0.000000 0.000000
vn 0.100000 0.000000 0.000000
vn 0.100000 0.000000 0.000000
vn 0.100000 0.000000 0.000000
vn 0.100000 0.000000 0.000000
vn 0.100000 0.000000 0.000000
vn 0.100000 0.000000 0.000000
vn 0.100000 0.000000 0.000000
vn 0.100000 0.000000 0.000000
vn 0.100000 0.000000 0.000000
vn 0.100000 0.000000 0.000000
vn 0.100000 0.000000 0.000000
vn 0.100000 0.000000 0.000000
vn 0.100000 0.000000 0.000000
vn 0.100000 0.000000 0.000000
usemtl Steel_-_Satin
f 2/1/1 3/2/2 1/3/3
f 1/3/3 3/2/2 4/4/4
f 5/5/5 6/6/6 36/7/7
f 36/7/7 6/6/6 35/8/8
f 35/8/8 6/6/6 7/9/9
f 35/8/8 7/9/9 34/10/10
f 34/10/10 7/9/9 8/11/11
f 34/10/10 8/11/11 33/12/12
f 33/12/12 8/11/11 9/13/13
f 33/12/12 9/13/13 32/14/14
f 32/14/14 9/13/13 10/15/15
f 32/14/14 10/15/15 31/16/16
f 31/16/16 10/15/15 11/17/17
f 31/16/16 11/17/17 30/18/18
f 30/18/18 11/17/17 12/19/19
f 30/18/18 12/19/19 29/20/20
f 29/20/20 12/19/19 13/21/21
f 29/20/20 13/21/21 28/22/22
f 28/22/22 13/21/21 14/23/23
f 28/22/22 14/23/23 27/24/24
f 27/24/24 14/23/23 15/25/25
f 27/24/24 15/25/25 26/26/26
f 26/26/26 15/25/25 16/27/27
f 26/26/26 16/27/27 25/28/28
f 25/28/28 16/27/27 17/29/29
f 25/28/28 17/29/29 24/30/30
f 24/30/30 17/29/29 18/31/31
f 24/30/30 18/31/31 23/32/32
f 23/32/32 18/31/31 19/33/33
f 23/32/32 19/33/33 22/34/34
f 22/34/34 19/33/33 20/35/35
f 22/34/34 20/35/35 21/36/36
f 21/36/36 20/35/35 4/37/37
f 4/37/37 20/35/35 1/38/38
f 4/39/39 3/40/40 21/41/41
f 21/41/41 3/40/40 37/42/42
f 21/41/41 37/42/42 22/43/43
f 22/43/43 37/42/42 38/44/44
f 22/43/43 38/44/44 23/45/45
f 23/45/45 38/44/44 39/46/46
f 23/45/45 39/46/46 24/47/47
f 24/47/47 39/46/46 40/48/48
f 24/47/47 40/48/48 25/49/49
f 25/49/49 40/48/48 41/50/50
f 25/49/49 41/50/50 26/51/51
f 26/51/51 41/50/50 42/52/52
f 26/51/51 42/52/52 27/53/53
f 27/53/53 42/52/52 43/54/54
f 27/53/53 43/54/54 28/55/55
f 28/55/55 43/54/54 44/56/56
f 28/55/55 44/56/56 29/57/57
f 29/57/57 44/56/56 45/58/58
f 29/57/57 45/58/58 30/59/59
f 30/59/59 45/58/58 46/60/60
f 30/59/59 46/60/60 31/61/61
f 31/61/61 46/60/60 47/62/62
f 31/61/61 47/62/62 32/63/63
f 32/63/63 47/62/62 48/64/64
f 32/63/63 48/64/64 33/65/65
f 33/65/65 48/64/64 49/66/66
f 33/65/65 49/66/66 34/67/67
f 34/67/67 49/66/66 50/68/68
f 34/67/67 50/68/68 35/69/69
f 35/69/69 50/68/68 51/70/70
f 35/69/69 51/70/70 36/71/71
f 5/72/72 36/73/73 52/74/74
f 52/74/74 36/73/73 51/75/75
f 3/76/76 2/77/77 37/78/78
f 37/78/78 2/77/77 53/79/79
f 37/78/78 53/79/79 54/80/80
f 37/78/78 54/80/80 38/81/81
f 38/81/81 54/80/80 55/82/82
f 38/81/81 55/82/82 39/83/83
f 39/83/83 55/82/82 56/84/84
f 39/83/83 56/84/84 40/85/85
f 40/85/85 56/84/84 57/86/86
f 40/85/85 57/86/86 41/87/87
f 41/87/87 57/86/86 58/88/88
f 41/87/87 58/88/88 42/89/89
f 42/89/89 58/88/88 59/90/90
f 42/89/89 59/90/90 43/91/91
f 43/91/91 59/90/90 60/92/92
f 43/91/91 60/92/92 44/93/93
f 44/93/93 60/92/92 61/94/94
f 44/93/93 61/94/94 45/95/95
f 45/95/95 61/94/94 62/96/96
f 45/95/95 62/96/96 46/97/97
f 46/97/97 62/96/96 63/98/98
f 46/97/97 63/98/98 47/99/99
f 47/99/99 63/98/98 64/100/100
f 47/99/99 64/100/100 48/101/101
f 48/101/101 64/100/100 65/102/102
f 48/101/101 65/102/102 49/103/103
f 49/103/103 65/102/102 66/104/104
f 49/103/103 66/104/104 50/105/105
f 50/105/105 66/104/104 52/106/106
f 50/105/105 52/106/106 51/107/107
f 5/108/108 52/109/109 6/110/110
f 6/110/110 52/109/109 66/111/111
f 6/110/110 66/111/111 7/112/112
f 7/112/112 66/111/111 65/113/113
f 7/112/112 65/113/113 8/114/114
f 8/114/114 65/113/113 64/115/115
f 8/114/114 64/115/115 9/116/116
f 9/116/116 64/115/115 63/117/117
f 9/116/116 63/117/117 10/118/118
f 10/118/118 63/117/117 62/119/119
f 10/118/118 62/119/119 11/120/120
f 11/120/120 62/119/119 61/121/121
f 11/120/120 61/121/121 12/122/122
f 12/122/122 61/121/121 60/123/123
f 12/122/122 60/123/123 13/124/124
f 13/124/124 60/123/123 59/125/125
f 13/124/124 59/125/125 14/126/126
f 14/126/126 59/125/125 58/127/127
f 14/126/126 58/127/127 15/128/128
f 15/128/128 58/127/127 57/129/129
f 15/128/128 57/129/129 16/130/130
f 16/130/130 57/129/129 56/131/131
f 16/130/130 56/131/131 17/132/132
f 17/132/132 56/131/131 55/133/133
f 17/132/132 55/133/133 18/134/134
f 18/134/134 55/133/133 54/135/135
f 18/134/134 54/135/135 19/136/136
f 19/136/136 54/135/135 53/137/137
f 19/136/136 53/137/137 20/138/138
f 20/138/138 53/137/137 2/139/139
f 20/138/138 2/139/139 1/140/140

# 66 vertices
# 140 texture params
# 140 normals
# 128 facets

# 1 groups
