# WaveFront *.obj file (generated by Autodesk ATF)

mtllib 4bd7d2a0-24f2-4b0a-8ba7-e737007df75d.mtl

g Body3

v 2.200000 2.449944 0.000000
v 2.200000 2.451647 -0.012941
v 2.200000 2.456642 -0.025000
v 2.200000 2.464588 -0.035355
v 2.200000 2.474944 -0.043301
v 2.200000 2.487003 -0.048296
v 2.200000 2.499944 -0.050000
v 2.200000 2.512885 -0.048296
v 2.200000 2.524944 -0.043301
v 2.200000 2.535299 -0.035355
v 2.200000 2.543245 -0.025000
v 2.200000 2.548240 -0.012941
v 2.200000 2.549944 0.000000
v 2.200000 2.546944 0.000000
v 2.200000 2.545342 -0.012164
v 2.200000 2.540647 -0.023500
v 2.200000 2.533178 -0.033234
v 2.200000 2.523444 -0.040703
v 2.200000 2.512108 -0.045399
v 2.200000 2.499944 -0.047000
v 2.200000 2.487779 -0.045399
v 2.200000 2.476444 -0.040703
v 2.200000 2.466710 -0.033234
v 2.200000 2.459240 -0.023500
v 2.200000 2.454545 -0.012164
v 2.200000 2.452944 0.000000
v 1.500000 2.452944 0.000000
v 1.500000 2.449944 0.000000
v 1.500000 2.546944 0.000000
v 1.500000 2.545342 -0.012164
v 1.500000 2.540647 -0.023500
v 1.500000 2.533178 -0.033234
v 1.500000 2.523444 -0.040703
v 1.500000 2.512108 -0.045399
v 1.500000 2.499944 -0.047000
v 1.500000 2.487779 -0.045399
v 1.500000 2.476444 -0.040703
v 1.500000 2.466710 -0.033234
v 1.500000 2.459240 -0.023500
v 1.500000 2.454545 -0.012164
v 1.500000 2.549944 0.000000
v 1.500000 2.548240 -0.012941
v 1.500000 2.543245 -0.025000
v 1.500000 2.535299 -0.035355
v 1.500000 2.524944 -0.043301
v 1.500000 2.512885 -0.048296
v 1.500000 2.499944 -0.050000
v 1.500000 2.487003 -0.048296
v 1.500000 2.474944 -0.043301
v 1.500000 2.464588 -0.035355
v 1.500000 2.456642 -0.025000
v 1.500000 2.451647 -0.012941
vt 0.030000 0.494994 0.000000
vt 0.031294 0.495165 0.000000
vt 0.030000 0.495294 0.000000
vt 0.031216 0.495455 0.000000
vt 0.032500 0.495664 0.000000
vt 0.032350 0.495924 0.000000
vt 0.033536 0.496459 0.000000
vt 0.033323 0.496671 0.000000
vt 0.034330 0.497494 0.000000
vt 0.034070 0.497644 0.000000
vt 0.034830 0.498700 0.000000
vt 0.034540 0.498778 0.000000
vt 0.034700 0.499994 0.000000
vt 0.035000 0.499994 0.000000
vt 0.034540 0.501211 0.000000
vt 0.034830 0.501288 0.000000
vt 0.034070 0.502344 0.000000
vt 0.034330 0.502494 0.000000
vt 0.033323 0.503318 0.000000
vt 0.033536 0.503530 0.000000
vt 0.032350 0.504065 0.000000
vt 0.032500 0.504324 0.000000
vt 0.031216 0.504534 0.000000
vt 0.031294 0.504824 0.000000
vt 0.030000 0.504694 0.000000
vt 0.030000 0.504994 0.000000
vt -0.027497 0.242797 0.000000
vt -0.097497 0.242797 0.000000
vt -0.027497 0.242497 0.000000
vt -0.097497 0.242497 0.000000
vt 0.117169 0.000000 0.000000
vt 0.047169 0.000000 0.000000
vt 0.117169 -0.001230 0.000000
vt 0.047169 -0.001230 0.000000
vt 0.117169 -0.002461 0.000000
vt 0.047169 -0.002461 0.000000
vt 0.117169 -0.003691 0.000000
vt 0.047169 -0.003691 0.000000
vt 0.117169 -0.004922 0.000000
vt 0.047169 -0.004922 0.000000
vt 0.117169 -0.006152 0.000000
vt 0.047169 -0.006152 0.000000
vt 0.117169 -0.007383 0.000000
vt 0.047169 -0.007383 0.000000
vt 0.117169 -0.008613 0.000000
vt 0.047169 -0.008613 0.000000
vt 0.117169 -0.009844 0.000000
vt 0.047169 -0.009844 0.000000
vt 0.117169 -0.011074 0.000000
vt 0.047169 -0.011074 0.000000
vt 0.117169 -0.012305 0.000000
vt 0.047169 -0.012305 0.000000
vt 0.117169 -0.013535 0.000000
vt 0.047169 -0.013535 0.000000
vt 0.117169 -0.014765 0.000000
vt 0.047169 -0.014765 0.000000
vt -0.030000 0.494994 0.000000
vt -0.030000 0.495294 0.000000
vt -0.031294 0.495165 0.000000
vt -0.031216 0.495455 0.000000
vt -0.032500 0.495664 0.000000
vt -0.032350 0.495924 0.000000
vt -0.033536 0.496459 0.000000
vt -0.033323 0.496671 0.000000
vt -0.034330 0.497494 0.000000
vt -0.034070 0.497644 0.000000
vt -0.034830 0.498700 0.000000
vt -0.034540 0.498778 0.000000
vt -0.035000 0.499994 0.000000
vt -0.034700 0.499994 0.000000
vt -0.034540 0.501211 0.000000
vt -0.034830 0.501288 0.000000
vt -0.034070 0.502344 0.000000
vt -0.034330 0.502494 0.000000
vt -0.033323 0.503318 0.000000
vt -0.033536 0.503530 0.000000
vt -0.032350 0.504065 0.000000
vt -0.032500 0.504324 0.000000
vt -0.031216 0.504534 0.000000
vt -0.031294 0.504824 0.000000
vt -0.030000 0.504694 0.000000
vt -0.030000 0.504994 0.000000
vt -0.117169 -0.015708 0.000000
vt -0.047169 -0.015708 0.000000
vt -0.117169 -0.014399 0.000000
vt -0.047169 -0.014399 0.000000
vt -0.117169 -0.013090 0.000000
vt -0.047169 -0.013090 0.000000
vt -0.117169 -0.011781 0.000000
vt -0.047169 -0.011781 0.000000
vt -0.117169 -0.010472 0.000000
vt -0.047169 -0.010472 0.000000
vt -0.117169 -0.009163 0.000000
vt -0.047169 -0.009163 0.000000
vt -0.117169 -0.007854 0.000000
vt -0.047169 -0.007854 0.000000
vt -0.117169 -0.006545 0.000000
vt -0.047169 -0.006545 0.000000
vt -0.117169 -0.005236 0.000000
vt -0.047169 -0.005236 0.000000
vt -0.117169 -0.003927 0.000000
vt -0.047169 -0.003927 0.000000
vt -0.117169 -0.002618 0.000000
vt -0.047169 -0.002618 0.000000
vt -0.117169 -0.001309 0.000000
vt -0.047169 -0.001309 0.000000
vt -0.117169 0.000000 0.000000
vt -0.047169 0.000000 0.000000
vt -0.027497 0.252497 0.000000
vt -0.097497 0.252497 0.000000
vt -0.027497 0.252197 0.000000
vt -0.097497 0.252197 0.000000
vn 0.100000 0.000000 0.000000
vn 0.100000 0.000000 0.000000
vn 0.100000 0.000000 0.000000
vn 0.100000 0.000000 0.000000
vn 0.100000 0.000000 0.000000
vn 0.100000 0.000000 0.000000
vn 0.100000 0.000000 0.000000
vn 0.100000 0.000000 0.000000
vn 0.100000 0.000000 0.000000
vn 0.100000 0.000000 0.000000
vn 0.100000 0.000000 0.000000
vn 0.100000 0.000000 0.000000
vn 0.100000 0.000000 0.000000
vn 0.100000 0.000000 0.000000
vn 0.100000 0.000000 0.000000
vn 0.100000 0.000000 0.000000
vn 0.100000 0.000000 0.000000
vn 0.100000 0.000000 0.000000
vn 0.100000 0.000000 0.000000
vn 0.100000 0.000000 0.000000
vn 0.100000 0.000000 0.000000
vn 0.100000 0.000000 0.000000
vn 0.100000 0.000000 0.000000
vn 0.100000 0.000000 0.000000
vn 0.100000 0.000000 0.000000
vn 0.100000 0.000000 0.000000
vn 0.000000 0.000000 0.100000
vn 0.000000 0.000000 0.100000
vn 0.000000 0.000000 0.100000
vn 0.000000 0.000000 0.100000
vn 0.000000 -0.100000 0.000000
vn 0.000000 -0.100000 0.000000
vn 0.000000 -0.096593 0.025882
vn 0.000000 -0.096593 0.025882
vn 0.000000 -0.086603 0.050000
vn 0.000000 -0.086603 0.050000
vn 0.000000 -0.070711 0.070711
vn 0.000000 -0.070711 0.070711
vn 0.000000 -0.050000 0.086603
vn 0.000000 -0.050000 0.086603
vn 0.000000 -0.025882 0.096593
vn 0.000000 -0.025882 0.096593
vn 0.000000 -0.000000 0.100000
vn 0.000000 -0.000000 0.100000
vn 0.000000 0.025882 0.096593
vn 0.000000 0.025882 0.096593
vn 0.000000 0.050000 0.086603
vn 0.000000 0.050000 0.086603
vn 0.000000 0.070711 0.070711
vn 0.000000 0.070711 0.070711
vn 0.000000 0.086603 0.050000
vn 0.000000 0.086603 0.050000
vn 0.000000 0.096593 0.025882
vn 0.000000 0.096593 0.025882
vn 0.000000 0.100000 0.000000
vn 0.000000 0.100000 0.000000
vn -0.100000 0.000000 0.000000
vn -0.100000 0.000000 0.000000
vn -0.100000 0.000000 0.000000
vn -0.100000 0.000000 0.000000
vn -0.100000 0.000000 0.000000
vn -0.100000 0.000000 0.000000
vn -0.100000 0.000000 0.000000
vn -0.100000 0.000000 0.000000
vn -0.100000 0.000000 0.000000
vn -0.100000 0.000000 0.000000
vn -0.100000 0.000000 0.000000
vn -0.100000 0.000000 0.000000
vn -0.100000 0.000000 0.000000
vn -0.100000 0.000000 0.000000
vn -0.100000 0.000000 0.000000
vn -0.100000 0.000000 0.000000
vn -0.100000 0.000000 0.000000
vn -0.100000 0.000000 0.000000
vn -0.100000 0.000000 0.000000
vn -0.100000 0.000000 0.000000
vn -0.100000 0.000000 0.000000
vn -0.100000 0.000000 0.000000
vn -0.100000 0.000000 0.000000
vn -0.100000 0.000000 0.000000
vn -0.100000 0.000000 0.000000
vn -0.100000 0.000000 0.000000
vn 0.000000 -0.100000 -0.000000
vn 0.000000 -0.100000 -0.000000
vn 0.000000 -0.096593 -0.025882
vn 0.000000 -0.096593 -0.025882
vn 0.000000 -0.086603 -0.050000
vn 0.000000 -0.086603 -0.050000
vn 0.000000 -0.070711 -0.070711
vn 0.000000 -0.070711 -0.070711
vn 0.000000 -0.050000 -0.086603
vn 0.000000 -0.050000 -0.086603
vn 0.000000 -0.025882 -0.096593
vn 0.000000 -0.025882 -0.096593
vn -0.000000 0.000000 -0.100000
vn -0.000000 0.000000 -0.100000
vn -0.000000 0.025882 -0.096593
vn -0.000000 0.025882 -0.096593
vn -0.000000 0.050000 -0.086603
vn -0.000000 0.050000 -0.086603
vn -0.000000 0.070711 -0.070711
vn -0.000000 0.070711 -0.070711
vn -0.000000 0.086603 -0.050000
vn -0.000000 0.086603 -0.050000
vn -0.000000 0.096593 -0.025882
vn -0.000000 0.096593 -0.025882
vn -0.000000 0.100000 -0.000000
vn -0.000000 0.100000 -0.000000
vn 0.000000 0.000000 0.100000
vn 0.000000 0.000000 0.100000
vn 0.000000 0.000000 0.100000
vn 0.000000 0.000000 0.100000
usemtl Steel_-_Satin
f 1/1/1 2/2/2 26/3/3
f 26/3/3 2/2/2 25/4/4
f 25/4/4 2/2/2 3/5/5
f 25/4/4 3/5/5 24/6/6
f 24/6/6 3/5/5 4/7/7
f 24/6/6 4/7/7 23/8/8
f 23/8/8 4/7/7 5/9/9
f 23/8/8 5/9/9 22/10/10
f 22/10/10 5/9/9 6/11/11
f 22/10/10 6/11/11 21/12/12
f 21/12/12 6/11/11 20/13/13
f 20/13/13 6/11/11 7/14/14
f 20/13/13 7/14/14 19/15/15
f 19/15/15 7/14/14 8/16/16
f 19/15/15 8/16/16 18/17/17
f 18/17/17 8/16/16 9/18/18
f 18/17/17 9/18/18 17/19/19
f 17/19/19 9/18/18 10/20/20
f 17/19/19 10/20/20 16/21/21
f 16/21/21 10/20/20 11/22/22
f 16/21/21 11/22/22 15/23/23
f 15/23/23 11/22/22 12/24/24
f 15/23/23 12/24/24 14/25/25
f 14/25/25 12/24/24 13/26/26
f 26/27/27 27/28/28 1/29/29
f 1/29/29 27/28/28 28/30/30
f 14/31/31 29/32/32 15/33/33
f 15/33/33 29/32/32 30/34/34
f 15/33/33 30/34/34 16/35/35
f 16/35/35 30/34/34 31/36/36
f 16/35/35 31/36/36 17/37/37
f 17/37/37 31/36/36 32/38/38
f 17/37/37 32/38/38 18/39/39
f 18/39/39 32/38/38 33/40/40
f 18/39/39 33/40/40 19/41/41
f 19/41/41 33/40/40 34/42/42
f 19/41/41 34/42/42 20/43/43
f 20/43/43 34/42/42 35/44/44
f 20/43/43 35/44/44 21/45/45
f 21/45/45 35/44/44 36/46/46
f 21/45/45 36/46/46 22/47/47
f 22/47/47 36/46/46 37/48/48
f 22/47/47 37/48/48 23/49/49
f 23/49/49 37/48/48 38/50/50
f 23/49/49 38/50/50 24/51/51
f 24/51/51 38/50/50 39/52/52
f 24/51/51 39/52/52 25/53/53
f 25/53/53 39/52/52 40/54/54
f 25/53/53 40/54/54 26/55/55
f 26/55/55 40/54/54 27/56/56
f 28/57/57 27/58/58 52/59/59
f 52/59/59 27/58/58 40/60/60
f 52/59/59 40/60/60 51/61/61
f 51/61/61 40/60/60 39/62/62
f 51/61/61 39/62/62 50/63/63
f 50/63/63 39/62/62 38/64/64
f 50/63/63 38/64/64 49/65/65
f 49/65/65 38/64/64 37/66/66
f 49/65/65 37/66/66 48/67/67
f 48/67/67 37/66/66 36/68/68
f 48/67/67 36/68/68 47/69/69
f 47/69/69 36/68/68 35/70/70
f 47/69/69 35/70/70 34/71/71
f 47/69/69 34/71/71 46/72/72
f 46/72/72 34/71/71 33/73/73
f 46/72/72 33/73/73 45/74/74
f 45/74/74 33/73/73 32/75/75
f 45/74/74 32/75/75 44/76/76
f 44/76/76 32/75/75 31/77/77
f 44/76/76 31/77/77 43/78/78
f 43/78/78 31/77/77 30/79/79
f 43/78/78 30/79/79 42/80/80
f 42/80/80 30/79/79 29/81/81
f 42/80/80 29/81/81 41/82/82
f 1/83/83 28/84/84 2/85/85
f 2/85/85 28/84/84 52/86/86
f 2/85/85 52/86/86 3/87/87
f 3/87/87 52/86/86 51/88/88
f 3/87/87 51/88/88 4/89/89
f 4/89/89 51/88/88 50/90/90
f 4/89/89 50/90/90 5/91/91
f 5/91/91 50/90/90 49/92/92
f 5/91/91 49/92/92 6/93/93
f 6/93/93 49/92/92 48/94/94
f 6/93/93 48/94/94 7/95/95
f 7/95/95 48/94/94 47/96/96
f 7/95/95 47/96/96 8/97/97
f 8/97/97 47/96/96 46/98/98
f 8/97/97 46/98/98 9/99/99
f 9/99/99 46/98/98 45/100/100
f 9/99/99 45/100/100 10/101/101
f 10/101/101 45/100/100 44/102/102
f 10/101/101 44/102/102 11/103/103
f 11/103/103 44/102/102 43/104/104
f 11/103/103 43/104/104 12/105/105
f 12/105/105 43/104/104 42/106/106
f 12/105/105 42/106/106 13/107/107
f 13/107/107 42/106/106 41/108/108
f 13/109/109 41/110/110 14/111/111
f 14/111/111 41/110/110 29/112/112

# 52 vertices
# 112 texture params
# 112 normals
# 100 facets

# 1 groups
